<?xml version="1.0" encoding="UTF-8" standalone="no"?>
<!-- Created with Inkscape (http://www.inkscape.org/) -->

<svg
   xmlns:dc="http://purl.org/dc/elements/1.1/"
   xmlns:cc="http://creativecommons.org/ns#"
   xmlns:rdf="http://www.w3.org/1999/02/22-rdf-syntax-ns#"
   xmlns:svg="http://www.w3.org/2000/svg"
   xmlns="http://www.w3.org/2000/svg"
   xmlns:xlink="http://www.w3.org/1999/xlink"
   xmlns:sodipodi="http://sodipodi.sourceforge.net/DTD/sodipodi-0.dtd"
   xmlns:inkscape="http://www.inkscape.org/namespaces/inkscape"
   width="433"
   height="478"
   id="svg2"
   sodipodi:version="0.32"
   inkscape:version="0.92.4 (5da689c313, 2019-01-14)"
   sodipodi:docname="TUX_G2.svg"
   inkscape:output_extension="org.inkscape.output.svg.inkscape"
   version="1.0"
   inkscape:export-filename="D:\Amministrativi_personale\LUG\tux-scandiano.png"
   inkscape:export-xdpi="150"
   inkscape:export-ydpi="150">
  <defs
     id="defs4">
    <inkscape:perspective
       sodipodi:type="inkscape:persp3d"
       inkscape:vp_x="0 : 526.18109 : 1"
       inkscape:vp_y="0 : 1000 : 0"
       inkscape:vp_z="744.09448 : 526.18109 : 1"
       inkscape:persp3d-origin="372.04724 : 350.78739 : 1"
       id="perspective4989" />
    <linearGradient
       id="linearGradient23837">
      <stop
         id="stop23839"
         offset="0"
         style="stop-color:#ffba00;stop-opacity:1;" />
      <stop
         id="stop23841"
         offset="1"
         style="stop-color:#ffffba;stop-opacity:1;" />
    </linearGradient>
    <linearGradient
       id="linearGradient10084">
      <stop
         style="stop-color:#000000;stop-opacity:1;"
         offset="0"
         id="stop10086" />
      <stop
         style="stop-color:#000000;stop-opacity:0;"
         offset="1"
         id="stop10088" />
    </linearGradient>
    <linearGradient
       id="linearGradient5197">
      <stop
         style="stop-color:#000000;stop-opacity:1;"
         offset="0"
         id="stop5199" />
      <stop
         style="stop-color:#ffffff;stop-opacity:1;"
         offset="1"
         id="stop5201" />
    </linearGradient>
    <linearGradient
       id="linearGradient3225">
      <stop
         style="stop-color:#000000;stop-opacity:0.71951222;"
         offset="0"
         id="stop3227" />
      <stop
         style="stop-color:#ffffff;stop-opacity:0"
         offset="1"
         id="stop3229" />
    </linearGradient>
    <linearGradient
       inkscape:collect="always"
       xlink:href="#linearGradient3225"
       id="linearGradient3231"
       x1="533.03326"
       y1="446.52438"
       x2="547.33417"
       y2="428.58325"
       gradientUnits="userSpaceOnUse" />
    <linearGradient
       inkscape:collect="always"
       xlink:href="#linearGradient5197"
       id="linearGradient7163"
       x1="263.61029"
       y1="435.38452"
       x2="358.50229"
       y2="314.54004"
       gradientUnits="userSpaceOnUse"
       spreadMethod="reflect" />
    <linearGradient
       inkscape:collect="always"
       xlink:href="#linearGradient5197"
       id="linearGradient8142"
       x1="228.8004"
       y1="401.76709"
       x2="361.57016"
       y2="343.16568"
       gradientUnits="userSpaceOnUse" />
    <linearGradient
       inkscape:collect="always"
       xlink:href="#linearGradient5197"
       id="linearGradient10090"
       x1="353.82788"
       y1="353.77969"
       x2="370.98239"
       y2="331.95367"
       gradientUnits="userSpaceOnUse" />
    <linearGradient
       inkscape:collect="always"
       xlink:href="#linearGradient5197"
       id="linearGradient10111"
       gradientUnits="userSpaceOnUse"
       x1="353.82788"
       y1="353.77969"
       x2="370.98239"
       y2="331.95367" />
    <linearGradient
       inkscape:collect="always"
       xlink:href="#linearGradient5197"
       id="linearGradient11090"
       x1="283.11636"
       y1="420.78415"
       x2="450.77399"
       y2="341.96973"
       gradientUnits="userSpaceOnUse" />
    <linearGradient
       inkscape:collect="always"
       xlink:href="#linearGradient5197"
       id="linearGradient13044"
       x1="335.76212"
       y1="383.67514"
       x2="432.98227"
       y2="334.34232"
       gradientUnits="userSpaceOnUse" />
    <linearGradient
       inkscape:collect="always"
       xlink:href="#linearGradient5197"
       id="linearGradient14025"
       x1="584.44714"
       y1="496.83411"
       x2="411.60892"
       y2="312.98669"
       gradientUnits="userSpaceOnUse" />
    <linearGradient
       inkscape:collect="always"
       xlink:href="#linearGradient5197"
       id="linearGradient15004"
       x1="379.11264"
       y1="378.87973"
       x2="383.80917"
       y2="225.32318"
       gradientUnits="userSpaceOnUse"
       spreadMethod="repeat" />
    <linearGradient
       inkscape:collect="always"
       xlink:href="#linearGradient5197"
       id="linearGradient16954"
       x1="333.62714"
       y1="305.53073"
       x2="338.83194"
       y2="276.24545"
       gradientUnits="userSpaceOnUse" />
    <linearGradient
       inkscape:collect="always"
       xlink:href="#linearGradient5197"
       id="linearGradient17933"
       x1="416.03726"
       y1="314.99216"
       x2="416.67383"
       y2="287.50903"
       gradientUnits="userSpaceOnUse" />
    <filter
       inkscape:collect="always"
       x="-0.058825664"
       width="1.1176513"
       y="-0.10828153"
       height="1.2165631"
       id="filter19925"
       color-interpolation-filters="sRGB">
      <feGaussianBlur
         inkscape:collect="always"
         stdDeviation="3.0337616"
         id="feGaussianBlur19927" />
    </filter>
    <filter
       inkscape:collect="always"
       x="-0.075075254"
       width="1.1501505"
       y="-0.2717368"
       height="1.5434736"
       id="filter21885"
       color-interpolation-filters="sRGB">
      <feGaussianBlur
         inkscape:collect="always"
         stdDeviation="6.0915256"
         id="feGaussianBlur21887" />
    </filter>
    <linearGradient
       inkscape:collect="always"
       xlink:href="#linearGradient23837"
       id="linearGradient23835"
       x1="278.7821"
       y1="598.48175"
       x2="300.01877"
       y2="538.17981"
       gradientUnits="userSpaceOnUse" />
    <linearGradient
       inkscape:collect="always"
       xlink:href="#linearGradient23837"
       id="linearGradient3203"
       gradientUnits="userSpaceOnUse"
       x1="278.7821"
       y1="598.48175"
       x2="300.01877"
       y2="538.17981" />
    <linearGradient
       inkscape:collect="always"
       xlink:href="#linearGradient23837"
       id="linearGradient4182"
       x1="346.8956"
       y1="409.87292"
       x2="406.49899"
       y2="371.66501"
       gradientUnits="userSpaceOnUse" />
    <linearGradient
       inkscape:collect="always"
       xlink:href="#linearGradient3225"
       id="linearGradient5169"
       x1="375.17139"
       y1="481.12695"
       x2="375.17139"
       y2="627.55237"
       gradientUnits="userSpaceOnUse" />
    <filter
       inkscape:collect="always"
       x="-0.075239249"
       width="1.1504785"
       y="-0.52976316"
       height="2.0595264"
       id="filter6160"
       color-interpolation-filters="sRGB">
      <feGaussianBlur
         inkscape:collect="always"
         stdDeviation="10.041395"
         id="feGaussianBlur6162" />
    </filter>
    <linearGradient
       inkscape:collect="always"
       xlink:href="#linearGradient5197"
       id="linearGradient7141"
       x1="267.00482"
       y1="450.1579"
       x2="195.34068"
       y2="423.26831"
       gradientUnits="userSpaceOnUse" />
    <linearGradient
       inkscape:collect="always"
       xlink:href="#linearGradient5197"
       id="linearGradient9469"
       gradientUnits="userSpaceOnUse"
       spreadMethod="reflect"
       x1="263.61029"
       y1="435.38452"
       x2="358.50229"
       y2="314.54004"
       gradientTransform="matrix(1.0429185,0,0,0.94590666,-177.39548,412.44533)" />
    <linearGradient
       inkscape:collect="always"
       xlink:href="#linearGradient3225"
       id="linearGradient9471"
       gradientUnits="userSpaceOnUse"
       x1="533.03326"
       y1="446.52438"
       x2="547.33417"
       y2="428.58325" />
    <linearGradient
       inkscape:collect="always"
       xlink:href="#linearGradient5197"
       id="linearGradient9473"
       gradientUnits="userSpaceOnUse"
       x1="283.11636"
       y1="420.78415"
       x2="450.77399"
       y2="341.96973"
       gradientTransform="matrix(1.1172474,0,0,1.1490875,-214.26239,341.86093)" />
    <linearGradient
       inkscape:collect="always"
       xlink:href="#linearGradient5197"
       id="linearGradient9475"
       gradientUnits="userSpaceOnUse"
       x1="584.44714"
       y1="496.83411"
       x2="411.60892"
       y2="312.98669" />
    <linearGradient
       inkscape:collect="always"
       xlink:href="#linearGradient5197"
       id="linearGradient9477"
       gradientUnits="userSpaceOnUse"
       x1="335.76212"
       y1="383.67514"
       x2="432.98227"
       y2="334.34232" />
    <linearGradient
       inkscape:collect="always"
       xlink:href="#linearGradient5197"
       id="linearGradient9479"
       gradientUnits="userSpaceOnUse"
       x1="228.8004"
       y1="401.76709"
       x2="361.57016"
       y2="343.16568" />
    <linearGradient
       inkscape:collect="always"
       xlink:href="#linearGradient23837"
       id="linearGradient9481"
       gradientUnits="userSpaceOnUse"
       x1="346.8956"
       y1="409.87292"
       x2="406.49899"
       y2="371.66501" />
    <linearGradient
       inkscape:collect="always"
       xlink:href="#linearGradient3225"
       id="linearGradient9483"
       gradientUnits="userSpaceOnUse"
       x1="375.17139"
       y1="481.12695"
       x2="375.17139"
       y2="627.55237" />
    <linearGradient
       inkscape:collect="always"
       xlink:href="#linearGradient5197"
       id="linearGradient9485"
       gradientUnits="userSpaceOnUse"
       x1="267.00482"
       y1="450.1579"
       x2="195.34068"
       y2="423.26831" />
    <linearGradient
       inkscape:collect="always"
       xlink:href="#linearGradient5197"
       id="linearGradient9487"
       gradientUnits="userSpaceOnUse"
       spreadMethod="repeat"
       x1="379.11264"
       y1="378.87973"
       x2="383.80917"
       y2="225.32318" />
    <linearGradient
       inkscape:collect="always"
       xlink:href="#linearGradient5197"
       id="linearGradient9489"
       gradientUnits="userSpaceOnUse"
       x1="333.62714"
       y1="305.53073"
       x2="338.83194"
       y2="276.24545" />
    <linearGradient
       inkscape:collect="always"
       xlink:href="#linearGradient5197"
       id="linearGradient9491"
       gradientUnits="userSpaceOnUse"
       x1="416.03726"
       y1="314.99216"
       x2="416.67383"
       y2="287.50903" />
    <linearGradient
       inkscape:collect="always"
       xlink:href="#linearGradient5197"
       id="linearGradient9493"
       gradientUnits="userSpaceOnUse"
       x1="353.82788"
       y1="353.77969"
       x2="370.98239"
       y2="331.95367"
       gradientTransform="matrix(1.125,0,0,0.96059463,-208.07322,406.75058)" />
    <linearGradient
       inkscape:collect="always"
       xlink:href="#linearGradient5197"
       id="linearGradient9495"
       gradientUnits="userSpaceOnUse"
       x1="353.82788"
       y1="353.77969"
       x2="370.98239"
       y2="331.95367" />
    <linearGradient
       inkscape:collect="always"
       xlink:href="#linearGradient23837"
       id="linearGradient9497"
       gradientUnits="userSpaceOnUse"
       x1="278.7821"
       y1="598.48175"
       x2="300.01877"
       y2="538.17981"
       gradientTransform="matrix(1.0900561,0,0,1.1411004,-188.60052,297.30915)" />
    <linearGradient
       inkscape:collect="always"
       xlink:href="#linearGradient23837"
       id="linearGradient9499"
       gradientUnits="userSpaceOnUse"
       x1="278.7821"
       y1="598.48175"
       x2="300.01877"
       y2="538.17981"
       gradientTransform="matrix(1.0900561,0,0,1.1411004,-11.938089,297.30915)" />
    <linearGradient
       inkscape:collect="always"
       xlink:href="#linearGradient5197"
       id="linearGradient2380"
       gradientUnits="userSpaceOnUse"
       x1="416.03726"
       y1="314.99216"
       x2="416.67383"
       y2="287.50903"
       gradientTransform="matrix(1,0,0,0.96059463,-161.39392,406.75058)" />
    <linearGradient
       inkscape:collect="always"
       xlink:href="#linearGradient5197"
       id="linearGradient2383"
       gradientUnits="userSpaceOnUse"
       x1="333.62714"
       y1="305.53073"
       x2="338.83194"
       y2="276.24545"
       gradientTransform="matrix(1,0,0,0.96059463,-161.39392,406.75058)" />
    <linearGradient
       inkscape:collect="always"
       xlink:href="#linearGradient5197"
       id="linearGradient2386"
       gradientUnits="userSpaceOnUse"
       spreadMethod="repeat"
       x1="379.11264"
       y1="378.87973"
       x2="383.80917"
       y2="225.32318"
       gradientTransform="matrix(1,0,0,0.96059463,-161.39392,406.75058)" />
    <linearGradient
       inkscape:collect="always"
       xlink:href="#linearGradient5197"
       id="linearGradient2390"
       gradientUnits="userSpaceOnUse"
       x1="267.00482"
       y1="450.1579"
       x2="195.34068"
       y2="423.26831"
       gradientTransform="matrix(1,0,0,0.96059463,-161.39392,406.75058)" />
    <linearGradient
       inkscape:collect="always"
       xlink:href="#linearGradient3225"
       id="linearGradient2394"
       gradientUnits="userSpaceOnUse"
       x1="375.17139"
       y1="481.12695"
       x2="375.17139"
       y2="627.55237"
       gradientTransform="translate(-162.39701,383.19088)" />
    <linearGradient
       inkscape:collect="always"
       xlink:href="#linearGradient23837"
       id="linearGradient2397"
       gradientUnits="userSpaceOnUse"
       x1="346.8956"
       y1="409.87292"
       x2="406.49899"
       y2="371.66501"
       gradientTransform="matrix(1,0,0,0.96059463,-161.39392,406.75058)" />
    <linearGradient
       inkscape:collect="always"
       xlink:href="#linearGradient5197"
       id="linearGradient2401"
       gradientUnits="userSpaceOnUse"
       x1="228.8004"
       y1="401.76709"
       x2="361.57016"
       y2="343.16568"
       gradientTransform="matrix(1,0,0,0.96059463,-161.39392,406.75058)" />
    <linearGradient
       inkscape:collect="always"
       xlink:href="#linearGradient5197"
       id="linearGradient2404"
       gradientUnits="userSpaceOnUse"
       x1="335.76212"
       y1="383.67514"
       x2="432.98227"
       y2="334.34232"
       gradientTransform="matrix(1,0,0,0.96059463,-161.39392,406.75058)" />
    <linearGradient
       inkscape:collect="always"
       xlink:href="#linearGradient5197"
       id="linearGradient2407"
       gradientUnits="userSpaceOnUse"
       x1="584.44714"
       y1="496.83411"
       x2="411.60892"
       y2="312.98669"
       gradientTransform="matrix(1,0,0,0.96059463,-161.39392,406.75058)" />
    <linearGradient
       inkscape:collect="always"
       xlink:href="#linearGradient3225"
       id="linearGradient2411"
       gradientUnits="userSpaceOnUse"
       x1="533.03326"
       y1="446.52438"
       x2="547.33417"
       y2="428.58325"
       gradientTransform="matrix(1,0,0,0.96059463,-161.39392,406.75058)" />
  </defs>
  <sodipodi:namedview
     id="base"
     pagecolor="#ffffff"
     bordercolor="#666666"
     borderopacity="1.0"
     inkscape:pageopacity="0.0"
     inkscape:pageshadow="2"
     inkscape:zoom="1.3144997"
     inkscape:cx="216.72575"
     inkscape:cy="185.7512"
     inkscape:document-units="px"
     inkscape:current-layer="layer1"
     inkscape:window-width="1920"
     inkscape:window-height="1017"
     inkscape:window-x="-8"
     inkscape:window-y="-8"
     showguides="true"
     inkscape:guide-bbox="true"
     showgrid="false"
     inkscape:window-maximized="1" />
  <metadata
     id="metadata7">
    <rdf:RDF>
      <cc:Work
         rdf:about="">
        <dc:format>image/svg+xml</dc:format>
        <dc:type
           rdf:resource="http://purl.org/dc/dcmitype/StillImage" />
      </cc:Work>
    </rdf:RDF>
  </metadata>
  <g
     inkscape:label="Livello 1"
     inkscape:groupmode="layer"
     id="layer1"
     style="display:inline"
     transform="translate(0,-574.36218)">
    <g
       id="g1097"
       transform="matrix(0.85568138,0,0,0.85568138,0.65693774,147.59545)"
       inkscape:export-xdpi="96"
       inkscape:export-ydpi="96">
      <rect
         y="601.98822"
         x="4.5519958"
         height="420.71735"
         width="420.71735"
         id="rect935"
         style="opacity:1;fill:#008080;fill-opacity:1;stroke:none;stroke-width:1.3848058;stroke-miterlimit:4;stroke-dasharray:none;stroke-dashoffset:0;stroke-opacity:1" />
      <g
         transform="translate(-2.9235281,-8.9132689)"
         id="g997">
        <path
           inkscape:connector-curvature="0"
           style="fill:#f2f2f2;fill-opacity:1;fill-rule:evenodd;stroke:none;stroke-width:0.98009932"
           d="m 123.34928,927.72663 c 0,0 -5.40652,-7.7902 -6.30761,-9.52137 -0.90108,-1.73115 -15.769,-56.26259 -12.16466,-74.43974 3.60435,-18.17715 4.95598,-32.02641 8.10978,-35.9215 3.1538,-3.89511 21.17552,-25.53457 23.42824,-26.83294 2.25271,-1.29836 11.71411,-16.0132 17.57117,-16.0132 5.85706,0 47.75757,18.17715 53.16408,17.31157 5.40652,-0.86558 28.83476,-0.86558 30.63693,-2.16395 1.80217,-1.29837 8.56032,-6.49183 8.56032,-6.49183 l 6.3076,-3.46232 c 0,0 14.41738,-1.29837 17.12064,-1.29837 2.70326,0 19.82389,9.52137 24.32932,14.28205 4.50543,4.76068 32.88965,35.92151 32.4391,52.36749 -0.45054,16.446 0,29.42967 -1.80217,34.19035 -1.80217,4.76069 -6.75815,21.63946 -8.10977,26.40015 -1.35163,4.76068 -4.05489,14.71483 -4.50544,18.60994 -0.45054,3.8951 -5.40651,7.7902 -7.20868,9.52136 -1.80218,1.73116 -25.23041,5.19347 -29.73585,6.92463 -4.50543,1.73115 -18.47226,11.25251 -22.52715,12.98368 -4.05489,1.73115 -13.06575,7.7902 -13.06575,7.7902 0,0 -12.6152,12.1181 -15.31846,13.41647 -2.70326,1.29837 -25.68095,5.62626 -33.79073,0.86557 -8.10977,-4.76068 -17.12063,-12.98367 -21.17552,-17.74435 -4.05489,-4.76069 -13.06575,-13.84926 -16.21955,-16.446 -3.1538,-2.59673 -29.73584,-3.46231 -29.73584,-4.32789 z"
           id="path17935" />
        <path
           inkscape:connector-curvature="0"
           style="opacity:0.1372549;fill:#000000;fill-opacity:1;fill-rule:evenodd;stroke:#000000;stroke-width:1px;stroke-linecap:butt;stroke-linejoin:miter;stroke-opacity:1;filter:url(#filter19925)"
           d="m 318.08339,382.62994 4.95598,1.80217 8.33504,4.05489 5.63179,2.02744 h 6.08233 7.88451 l 37.62034,-3.1538 5.85706,-1.35163 6.53287,-3.37907 10.58777,-4.05489 5.18124,-0.90108 4.28016,0.45054 2.70326,-0.45054 2.02744,2.25271 2.92853,5.40652 3.60435,8.56032 c 0,0 -36.04345,50.91136 -53.16408,50.01027 -17.12064,-0.90108 -48.60125,-30.67006 -46.63121,-27.25785 1.97004,3.41221 -22.97769,-27.7084 -22.97769,-27.7084 z"
           id="path18906"
           transform="matrix(1.0235525,0,0,1.0090605,-173.59404,369.84859)" />
        <ellipse
           ry="46.240013"
           rx="36.326889"
           cy="732.94727"
           cx="175.11565"
           style="fill:url(#linearGradient9469);fill-opacity:1;stroke:none;stroke-width:0.99322885"
           id="path6186" />
        <path
           inkscape:connector-curvature="0"
           id="path6184"
           d="m 125.35533,925.66181 c 0,0 -9.56757,-26.42286 -9.86656,-47.67603 -0.29899,-21.25317 -1.49493,-33.60299 2.69088,-49.68648 4.18581,-16.08347 4.18581,-18.09391 4.18581,-18.09391 l -21.52704,39.6343 c 0,0 -3.288848,17.5195 -3.587838,19.24273 -0.29899,1.72323 2.69088,33.31579 2.69088,33.31579 l 3.288848,10.91379 7.17569,10.91379 4.18581,3.73367 z"
           style="fill:#cccccc;fill-opacity:1;fill-rule:evenodd;stroke:none;stroke-width:0.98009932" />
        <path
           inkscape:connector-curvature="0"
           style="fill:#cccccc;fill-opacity:1;fill-rule:evenodd;stroke:none;stroke-width:0.98009932"
           d="m 302.03549,926.23622 c 0,0 9.56757,-26.42287 9.86656,-47.67603 0.29899,-21.25318 1.49493,-33.60299 -2.69088,-49.68648 -4.18581,-16.08348 -4.18581,-18.09391 -4.18581,-18.09391 l 21.52704,39.63429 c 0,0 3.28885,17.51951 3.58784,19.24274 0.29899,1.72323 -2.69088,33.31579 -2.69088,33.31579 l -3.28885,10.91378 -7.17569,10.9138 -4.18581,3.73367 z"
           id="path4226" />
        <path
           inkscape:connector-curvature="0"
           style="fill:url(#linearGradient2411);fill-opacity:1;fill-rule:evenodd;stroke:none;stroke-width:0.98009932"
           d="m 340.17738,792.96879 1.30008,4.9954 54.34339,53.20105 5.20033,4.2461 2.08013,-0.99909 -2.34015,-6.49402 -7.54047,-10.24057 -9.6206,-9.99081 -16.12101,-13.23782 -10.40065,-7.99265 -8.84055,-7.74288 -3.64023,-3.49678 -1.56009,-1.24886 z"
           id="path2253" />
        <ellipse
           ry="31.951258"
           rx="37.746761"
           cy="734.81409"
           cx="251.0583"
           style="fill:url(#linearGradient9473);fill-opacity:1;stroke:none;stroke-width:1.13305557"
           id="path10113" />
        <path
           inkscape:connector-curvature="0"
           style="fill:url(#linearGradient2407);fill-opacity:1;fill-rule:evenodd;stroke:none;stroke-width:0.98009932"
           d="m 265.55911,753.9132 c 0,0 8.07264,-0.57441 11.66048,-2.01044 3.58784,-1.43602 8.67062,-4.88248 8.67062,-4.88248 0,0 7.77365,-13.78585 -3.58784,-29.86933 -11.3615,-16.08348 -39.76524,-12.92422 -39.76524,-12.92422 l -3.58784,2.01043 z"
           id="path13048" />
        <path
           inkscape:connector-curvature="0"
           style="fill:url(#linearGradient2404);fill-opacity:1;fill-rule:evenodd;stroke:none;stroke-width:0.98009932"
           d="m 240.74321,706.23716 v 0 c 0,0 16.74326,2.87205 26.60982,21.25317 9.86656,18.38113 -0.59797,26.71008 -0.59797,26.71008 0,0 -19.73313,3.73366 -31.6926,-2.29765 -11.95947,-6.0313 -17.64021,-26.13566 -17.64021,-26.13566 0,0 0.59797,-6.60571 9.56757,-12.34981 8.9696,-5.7441 14.05238,-6.89292 13.75339,-7.18013 z"
           id="path12067" />
        <path
           inkscape:connector-curvature="0"
           style="fill:url(#linearGradient2401);fill-opacity:1;fill-rule:evenodd;stroke:none;stroke-width:0.98009932"
           d="m 150.74821,700.49306 c 0,0 -2.98987,25.84845 9.26859,41.35753 12.25845,15.50907 33.48651,21.82758 33.48651,21.82758 0,0 6.27872,-28.7205 -5.38176,-43.36796 -11.66049,-14.64746 -37.37334,-19.81715 -37.37334,-19.81715 z"
           id="path7165"
           sodipodi:nodetypes="cscsc" />
        <path
           inkscape:connector-curvature="0"
           style="opacity:0.21568627;fill:#000000;fill-opacity:1;fill-rule:evenodd;stroke:none;filter:url(#filter21885)"
           d="m 119.81152,934.52679 c 0,0 15.01616,-5.00539 36.94453,2.62187 21.92837,7.62726 31.70079,15.25451 32.6542,15.73122 0.9534,0.4767 18.82979,10.96418 18.82979,10.96418 0,0 6.67385,3.57528 16.44627,0.23835 9.77243,-3.33692 28.12552,-15.73122 31.22409,-18.35309 3.09857,-2.62187 20.73661,-9.53407 24.07353,-10.01077 3.33693,-0.47671 10.01078,-1.90682 15.25452,-1.90682 5.24374,0 10.48748,0.23836 10.48748,0.23836 l 3.81363,-8.58067 1.66846,-10.01078 c 0,0 -7.62726,-5.95879 -27.88716,-2.86022 -20.25991,3.09858 -42.42662,12.63265 -56.96608,17.63804 -14.53946,5.00538 -9.05737,4.76703 -13.82441,5.48209 -4.76703,0.71505 -21.69001,-11.20254 -30.50903,-14.30111 -8.81902,-3.09857 -25.98035,-8.58066 -36.70618,-8.81902 -10.72583,-0.23835 -17.87638,-0.71505 -21.21331,0.95341 -3.33692,1.66846 -7.62726,5.00539 -7.62726,5.00539 z"
           id="path20898"
           transform="matrix(1,0,0,0.96059463,1.0030875,38.659481)" />
        <path
           inkscape:connector-curvature="0"
           style="fill:url(#linearGradient2397);fill-opacity:1;fill-rule:evenodd;stroke:none;stroke-width:0.98009932"
           d="m 180.53236,767.44205 c -0.45758,0.10988 -1.48714,3.07684 -1.48714,3.07684 0,0 -0.45758,1.53841 -0.22879,2.63729 0.22879,1.09887 0,2.08786 0.57198,2.96696 0.57197,0.87908 27.11158,29.12008 27.11158,29.12008 0,0 1.71593,2.63728 4.80459,2.30762 3.08866,-0.32965 4.11821,-0.65932 5.03337,-1.20875 0.91516,-0.54944 23.22216,-22.08731 23.22216,-22.08731 l 7.89325,-9.67006 c 0,0 0.57197,-2.30764 0.34318,-4.39549 -0.22879,-2.08786 -3.77503,-5.49435 -3.77503,-5.49435 0,0 -3.43184,-2.19775 -4.347,-2.52741 -0.91516,-0.32966 -14.52815,-5.93391 -23.22216,-6.15368 -8.69401,-0.21978 -22.4214,3.18672 -22.4214,3.18672 z"
           id="path3205" />
        <path
           inkscape:connector-curvature="0"
           style="opacity:0.21176471;fill:#000000;fill-opacity:1;fill-rule:evenodd;stroke:url(#linearGradient2394);stroke-width:1px;stroke-linecap:butt;stroke-linejoin:miter;stroke-opacity:1;filter:url(#filter6160)"
           d="m 70.053374,971.10987 c 0,0 -16.93044,7.32127 -16.93044,12.35464 0,5.03338 1.83031,20.59109 77.788506,29.74269 75.9582,9.1516 59.94292,-12.8122 76.87336,-12.8122 16.93044,0 14.64254,4.1182 16.93044,5.9485 2.2879,1.8303 32.03057,13.2698 72.75514,7.7788 40.72458,-5.4909 70.92483,-16.01524 74.58546,-26.99715 3.66064,-10.98191 -21.04866,-15.5577 -21.04866,-15.5577 z"
           id="path4184"
           inkscape:export-filename="D:\Amministrativi_personale\LUG\tux-scandiano.png"
           inkscape:export-xdpi="150"
           inkscape:export-ydpi="150"
           transform="matrix(1.0361628,0,0,0.52336989,3.799083,469.75664)" />
        <path
           inkscape:connector-curvature="0"
           id="path2227"
           d="m 81.546972,983.49499 c -8.6969,-2.97868 -12.06828,-8.49601 -11.45095,-18.73971 0.88847,-14.74299 10.64991,-25.49049 31.535868,-34.72146 12.76971,-5.64384 20.58635,-6.93234 38.71718,-6.3821 12.81762,0.38898 16.30001,0.84469 23.54271,3.08079 16.13541,4.98161 29.62164,14.3383 35.42209,24.57568 3.03081,5.34916 4.39804,14.19818 3.16735,20.49979 -0.87024,4.456 -4.98074,9.07152 -10.04807,11.28259 -3.7555,1.63866 -7.68428,1.7619 -55.54137,1.74234 -41.041529,-0.0168 -52.280789,-0.2885 -55.344808,-1.33792 z M 137.2901,972.30772 c 21.64457,-1.03935 22.15819,-1.11226 24.83393,-3.52546 9.30834,-8.39502 6.21357,-23.21499 -6.60281,-31.61895 -8.05548,-5.28214 -16.80637,-7.30652 -29.41856,-6.80554 -17.25471,0.68538 -29.066818,6.55639 -34.582418,17.18861 -4.40046,8.4826 -2.72067,17.54121 4.30597,23.22075 3.83964,3.10354 6.701298,3.20986 41.463888,1.54059 z m 97.10168,11.43562 c -1.65,-0.55063 -4.6422,-2.50695 -6.64934,-4.34737 -13.44307,-12.32648 -1.97106,-36.99365 22.41185,-48.19003 12.48809,-5.7344 23.63024,-8.02924 38.7109,-7.97291 15.40128,0.0575 20.89902,1.06289 32.94631,6.02495 11.82479,4.87041 18.65842,9.20672 24.98051,15.85152 8.08492,8.4976 11.39293,21.128 7.73574,29.53597 -1.73906,3.99816 -6.65005,7.97607 -11.41702,9.24782 -5.0709,1.35283 -104.62725,1.21552 -108.71895,-0.14995 z m 103.56557,-12.97621 c 13.33663,-10.77982 6.18429,-30.36672 -13.81348,-37.82869 -8.05969,-3.00739 -24.0111,-3.66402 -32.8947,-1.3541 -21.47962,5.58515 -31.73306,24.38826 -20.00348,36.68308 l 3.23354,3.38937 14.45628,0.70814 c 7.95095,0.38947 21.50924,0.77472 30.12954,0.85612 l 15.67328,0.14798 z M 208.23079,807.87256 c -1.18854,-0.64169 -8.49665,-8.08298 -16.24023,-16.53622 -12.83137,-14.00728 -14.08011,-15.69438 -14.08901,-19.03489 -0.005,-2.01596 0.45717,-4.50349 1.02788,-5.52785 1.28999,-2.31538 10.04888,-6.59802 20.07301,-9.81465 12.9256,-4.14769 25.64262,-2.33799 43.03501,6.12408 2.00512,0.97556 4.36762,2.46725 5.25,3.31486 1.95667,1.87957 2.08422,6.16984 0.25487,8.57303 -1.22453,1.60865 -1.3084,1.50402 -0.90592,-1.13022 0.62166,-4.06875 -2.11559,-8.57434 -6.51523,-10.72425 -10.10327,-4.93703 -25.22087,-7.58405 -33.98007,-5.94977 -7.29346,1.3608 -16.74932,5.10607 -16.74932,6.63406 0,0.70064 2.91885,2.25302 6.5,3.457 12.91675,4.34261 23.72222,10.92869 30.6076,18.65574 1.95154,2.19008 4.05865,3.98197 4.68247,3.98197 0.62383,0 3.12316,-1.83714 5.55407,-4.08253 6.75384,-6.23839 3.36986,-1.40911 -7.01858,10.01623 -11.46278,12.60691 -15.86868,15.07646 -21.48655,12.04341 z m 7.88372,-3.41785 c 1.10741,-1.03321 -33.7313,-35.13688 -35.07767,-34.33757 -0.62978,0.37389 -1.14506,1.94488 -1.14506,3.49109 0,2.26379 2.64148,5.60877 13.56299,17.17523 7.45964,7.90017 14.32214,14.56457 15.25,14.80979 1.95971,0.51791 6.35882,-0.15803 7.40974,-1.13854 z"
           style="fill:#cda809;stroke-width:0.98009932" />
        <path
           inkscape:connector-curvature="0"
           style="fill:url(#linearGradient2390);fill-opacity:1;fill-rule:evenodd;stroke:none;stroke-width:0.98009932"
           d="m 82.319541,793.76111 c 0,0 -16.7882,15.03333 -21.62548,19.13332 -4.83728,4.1 -11.52411,8.33666 -19.34911,15.71666 -7.825009,7.37999 -14.79639,15.85332 -15.223199,16.67332 -0.42682,0.82001 -2.84546,4.23667 -2.70319,6.28666 0.14227,2.05001 -0.56909,4.78333 0.995909,4.23667 1.565001,-0.54667 32.865041,-28.69999 34.999131,-31.02331 2.1341,-2.32333 17.3573,-17.08333 20.4873,-20.22665 3.13,-3.14334 4.97955,-6.69668 4.97955,-6.69668 l 0.99591,-3.14332 0.14227,-0.95667 z"
           id="path6164" />
        <path
           inkscape:connector-curvature="0"
           id="path2225"
           d="m 198.59246,978.84492 c 3.74797,-4.11444 4.74795,-8.18692 4.05283,-16.50542 -0.34425,-4.11965 -1.40449,-7.63042 -3.33142,-11.03131 -3.30442,-5.83207 -12.01319,-13.89596 -19.58666,-18.13627 -2.93449,-1.64301 -4.95124,-2.99681 -4.48166,-3.00846 1.8278,-0.0453 15.50194,7.44118 22.63829,12.3944 4.12937,2.86611 9.08294,5.74414 11.00794,6.39561 4.51135,1.52675 6.82677,0.61014 18,-7.1257 4.675,-3.23676 12.55,-7.5786 17.5,-9.64852 12.50866,-5.23071 15.64291,-5.83375 5.74687,-1.10573 -24.27054,11.59573 -35.33978,34.82468 -22.87825,48.01033 l 3.13138,3.31334 -3.87451,-2.733 c -3.42538,-2.4162 -4.93232,-2.78391 -13,-3.17218 -9.04071,-0.43508 -9.1673,-0.40987 -13.62549,2.71369 l -4.5,3.15285 z m -97.5582,-62.07468 C 87.015101,896.44125 79.610402,875.77958 78.042912,852.61636 c -0.364901,-5.39219 -1.13819,-10.26 -1.718411,-10.81737 -1.96267,-1.88532 -12.72734,2.40406 -29.93272,11.92724 -16.74295,9.26723 -17.71319,9.64075 -21.05816,8.10687 -2.44759,-1.12238 -3.03169,-2.074 -3.47664,-5.66416 -0.64916,-5.23793 1.10599,-9.12994 7.66956,-17.00713 7.61897,-9.14379 12.25958,-13.47152 24.86524,-23.18873 35.92518,-27.69332 44.97511,-43.66361 47.500899,-83.82412 1.0338,-16.43759 1.68753,-20.30895 5.17194,-30.62822 11.06853,-32.77994 41.67373,-60.13167 77.31981,-69.10035 39.25595,-9.87693 80.39074,1.30722 108.75042,29.5682 20.49674,20.4254 28.94006,39.95645 30.79367,71.23178 2.32755,39.27191 11.55376,55.24797 48.17229,83.41493 19.18335,14.75583 31.86229,29.75619 32.06579,37.93678 0.11993,4.82111 -1.16222,6.89146 -4.81293,7.77162 -2.79677,0.67428 -6.18246,-0.83285 -24.42814,-10.87413 -13.83031,-7.61134 -23.59333,-11.24896 -25.69477,-9.57364 -0.85111,0.67852 -1.34045,3.21212 -1.343,6.95356 -0.005,7.81072 -2.331,21.22858 -5.52057,31.8508 -4.21075,14.02303 -11.21795,27.09379 -24.59824,45.88391 -0.36353,0.5105 -1.50031,0.42352 -2.73054,-0.20892 -2.08426,-1.07152 -2.07035,-1.13409 1.24936,-5.6226 1.84639,-2.49647 4.09919,-5.9439 5.00622,-7.66097 1.47866,-2.79919 1.48729,-3.12193 0.0834,-3.12193 -1.19106,0 -1.54181,-0.97693 -1.46575,-4.08253 0.055,-2.24539 -0.0599,-14.02468 -0.25532,-26.1762 -0.30301,-18.8416 -0.694,-23.49961 -2.65629,-31.64519 -7.22873,-30.0069 -21.41128,-53.98107 -40.61874,-68.66191 -10.17973,-7.78066 -14.1755,-9.2949 -21.46957,-8.13612 l -5.8551,0.93017 -0.40923,-2.6784 c -0.38247,-2.50328 -0.17534,-2.67917 3.16757,-2.68982 8.92819,-0.0284 21.7105,-5.4048 27.50957,-11.57073 4.78713,-5.08998 7.93455,-13.46321 7.92306,-21.07809 -0.023,-15.26447 -13.95071,-28.01113 -32.21347,-29.48189 -5.67597,-0.4571 -8.3813,-0.15478 -13.91774,1.55527 -7.66627,2.36791 -15.47239,7.52908 -19.02732,12.58032 l -2.34981,3.33887 -4.14841,12.6566 c 1.82944,0.3267 10.23843,-11.41171 9.55093,-11.34216 -1.97139,0.19943 -1.45377,3.23199 1.06847,6.25984 2.01726,2.42164 2.58442,2.62948 4.49504,1.64725 2.71142,-1.39393 2.7204,-2.01645 0.0792,-5.48975 -1.57347,-2.06922 -1.21273,-1.88243 1.42411,0.73739 7.95454,7.90319 -3.53292,15.84219 -5.33775,25.90907 -0.0596,0.33228 -6.62861,-3.04173 -6.29266,-2.51957 0.39689,0.61687 0.66102,5.30581 -4.79288,4.86268 -4.61646,-0.37509 -2.75459,-14.17477 -4.63279,-14.1676 -8.6479,0.033 -20.70014,7.01473 -20.73759,-4.62513 -0.019,-5.90035 0.39886,-7.85651 2.30838,-10.80669 2.1756,-3.36128 5.16844,-4.86842 5.16844,-2.60274 0,0.54972 1.01098,2.38686 2.24662,4.08253 1.23564,1.69567 2.33969,3.24301 2.45343,3.43855 0.59842,1.0287 5.29995,-1.09833 5.29995,-2.39778 0,-1.01997 0.54414,-1.32478 1.6423,-0.91999 2.88873,1.06483 1.03181,-9.28671 -3.10997,-17.33681 -10.28625,-19.99266 -30.96297,-26.94533 -48.03233,-16.15115 -10.80227,6.83106 -19.46527,24.33573 -19.46527,39.332 0,7.10325 2.55344,17.47083 5.92968,24.07586 4.31443,8.44047 13.95777,17.0761 21.38475,19.1501 3.12448,0.87252 7.24445,1.457 9.1555,1.29884 3.34137,-0.27653 3.99603,0.28249 17.07064,14.57672 7.47781,8.17535 14.73265,15.44367 16.12188,16.15182 4.27127,2.17726 8.59764,0.66318 14.05867,-4.92004 2.69674,-2.75707 7.01322,-7.1742 9.59219,-9.81584 3.99725,-4.09437 4.53865,-4.4037 3.66966,-2.09667 -4.54131,12.05646 -14.34475,20.82827 -23.27782,20.82827 -6.00971,0 -10.69114,-3.40895 -21.09876,-15.36382 -8.57289,-9.84738 -12.82252,-13.50542 -17.85946,-15.37329 -1.80491,-0.66931 -6.31309,-2.5178 -10.01816,-4.10774 l -6.73651,-2.89081 -3.76349,2.40253 c -16.49334,10.52889 -31.48746,31.83828 -40.20279,57.13548 -5.58914,16.22309 -7.28813,27.35113 -7.01083,45.91957 0.3228,21.6154 -0.28444,30.25873 -2.12582,30.25873 -1.38536,0 0.87178,4.78084 4.62881,9.80429 3.96749,5.30484 4.15539,6.12383 1.55481,6.7771 -1.50407,0.37782 -3.34347,-1.62894 -8.9652,-9.78093 z m 227.85752,-8.72165 c 0.5887,-1.05665 0.84537,-1.92119 0.57037,-1.92119 -0.275,0 -0.98167,0.86454 -1.57037,1.92119 -0.5887,1.05665 -0.84537,1.92119 -0.57037,1.92119 0.275,0 0.98167,-0.86454 1.57037,-1.92119 z m 11.47281,-24.52727 c 3.18,-8.92863 5.5336,-21.07743 6.18512,-31.9264 0.8497,-14.14892 1.15471,-14.53251 9.42816,-11.85701 3.52765,1.14079 9.11391,3.4973 12.41391,5.23671 14.96661,7.88877 24.7629,13.62402 25.21834,14.76413 0.58155,1.45577 6.8794,1.68247 7.78166,0.28011 0.33992,-0.52833 0.0242,-0.9606 -0.70162,-0.9606 -0.72581,0 -4.46487,-3.52707 -8.30902,-7.83794 -3.84415,-4.31086 -11.93936,-12.03542 -17.98936,-17.16569 -6.05,-5.13027 -15.725,-14.03089 -21.5,-19.77915 -9.4457,-9.40199 -10.77785,-11.1748 -13.26722,-17.65587 -1.52197,-3.96245 -2.75947,-8.3867 -2.75,-9.83166 0.009,-1.44496 -1.28978,-4.68697 -2.88723,-7.20446 -5.89664,-9.29278 -9.8726,-25.71091 -11.1114,-45.88283 -1.27291,-20.72743 -3.9217,-31.27734 -11.49609,-45.78804 -13.62865,-26.10922 -39.43581,-46.22461 -69.48806,-54.16248 -11.77953,-3.1114 -34.50025,-4.26948 -46.75684,-2.3832 -35.88721,5.52301 -67.87002,28.76494 -82.86254,60.21627 -5.62438,11.79883 -8.33688,23.58091 -9.3687,40.69413 -1.30295,21.6101 -5.069299,36.83619 -11.983279,48.44437 -1.68146,2.82308 -2.78083,5.79457 -2.45012,6.62242 0.62371,1.56132 -2.18818,9.64618 -5.49657,15.80391 -1.92315,3.57947 -20.61773,21.63836 -35.70211,34.4881 -4.46493,3.80347 -10.97577,10.17942 -14.46853,14.16877 -3.49277,3.98934 -6.95323,7.25335 -7.68991,7.25335 -0.73669,0 -1.06132,0.43227 -0.7214,0.9606 1.00514,1.56227 5.70917,1.09745 7.93555,-0.78414 2.54085,-2.14737 18.92964,-11.40887 27.06445,-15.29447 8.88898,-4.24582 16.44499,-6.45215 17.76246,-5.18659 0.59556,0.57209 1.45361,6.32213 1.90677,12.77786 0.94502,13.46283 4.34911,28.19479 8.94532,38.71284 3.29947,7.55058 5.11223,9.67056 2.21878,2.59482 -0.90484,-2.21273 -1.37533,-4.28234 -1.04553,-4.59914 0.32979,-0.31679 3.57556,1.8492 7.21282,4.8133 3.637259,2.96412 6.925089,5.38933 7.306289,5.38937 0.3812,4e-5 0.70147,-8.32111 0.71172,-18.49145 0.0139,-13.7454 0.47346,-20.71045 1.7907,-27.13686 6.51382,-31.77906 21.35009,-57.46387 43.66266,-75.58959 l 5.47198,-4.44519 -4.63785,-4.76285 c -17.17001,-17.6328 -18.01023,-48.61076 -1.85109,-68.24805 5.04081,-6.1258 12.09818,-10.33508 21.14261,-12.61022 l 7.40236,-1.86208 -5,-0.0387 c -6.77927,-0.0524 -15.72433,2.08958 -23.52437,5.63327 -8.26764,3.75613 -9.09628,2.24688 -2.13988,-3.8975 7.65086,-6.75776 14.25763,-8.93938 27.18528,-8.97683 9.88088,-0.0286 10.92269,0.15947 17.12258,3.09138 6.55266,3.09876 16.36261,11.76537 14.12757,12.48102 -0.61209,0.19599 -3.28601,-0.68993 -5.94204,-1.96871 -4.92134,-2.36944 -9.46164,-3.87562 -14.82914,-4.91933 -1.83688,-0.35718 -0.47991,0.60494 3.5,2.48157 12.07096,5.69178 21.43374,17.81908 24.3463,31.53498 0.66176,3.11634 1.46946,5.92185 1.79489,6.23447 0.32544,0.3126 1.78602,-1.77651 3.24573,-4.64248 6.91119,-13.56934 24.94476,-21.87156 41.24228,-18.98696 12.63003,2.23548 23.0789,9.37308 28.10033,19.19529 3.66283,7.16472 3.91684,18.32599 0.57624,25.32007 -3.21269,6.72626 -10.59671,13.77704 -17.96665,17.15579 -3.48652,1.59839 -6.33912,3.03902 -6.33912,3.20139 0,0.16238 2.5875,1.93869 5.75,3.94737 19.02663,12.08486 35.65743,34.00989 44.6317,58.83973 6.16482,17.05668 8.0707,28.75879 8.05361,49.44926 -0.008,9.90613 0.31184,18.01114 0.71115,18.01114 0.39932,0 3.56391,-2.37747 7.03242,-5.28327 9.0013,-7.54095 9.62745,-7.14669 4.82112,3.03574 -1.65,3.49561 -2.96123,6.62006 -2.91385,6.94323 0.14539,0.99168 7.58196,-14.54988 9.38666,-19.61702 z M 288.21287,702.61217 c -5.16253,-4.48781 -14.87439,-9.54008 -21.68948,-11.28322 -7.69132,-1.96725 -20.21773,-1.69234 -27.99227,0.61436 -3.61424,1.07233 -9.57123,3.88207 -13.23776,6.24386 -3.66653,2.36179 -6.98104,4.29417 -7.36558,4.29417 -0.38455,0 -2.13208,-2.12422 -3.88341,-4.72048 -9.66938,-14.33437 -28.98696,-23.6176 -45.11755,-21.68164 -11.33594,1.36053 -25.56883,8.71662 -31.62662,16.34583 -3.36313,4.23554 -4.40842,4.20438 -4.40842,-0.13144 0,-11.01846 7.16377,-25.39065 18.14402,-36.40111 17.06536,-17.11233 40.40735,-25.38654 68.35598,-24.23066 41.18138,1.70315 74.07586,28.37565 76.25849,61.83422 0.55843,8.56041 -0.12156,12.84926 -2.02754,12.78826 -0.67702,-0.0217 -3.11146,-1.67413 -5.40986,-3.67215 z m -54.82109,-11.24665 c 6.49456,-2.54668 7.97477,-2.74631 20.5,-2.76472 12.92025,-0.019 13.84356,0.11342 21.5,3.08354 5.09773,1.97754 9.72322,3.105 12.75,3.10782 l 4.75,0.005 v -4.7018 c 0,-19.18318 -18.71337,-41.39234 -42.97472,-51.00267 -12.1276,-4.80397 -20.91465,-6.26482 -37.02528,-6.15549 -17.16131,0.11644 -25.46195,1.90166 -39.5,8.49524 -19.98248,9.38563 -33.98751,25.72645 -37.49178,43.74472 -0.46372,2.38437 -0.70823,4.4648 -0.54335,4.62318 0.16487,0.15838 3.16523,-1.79067 6.66745,-4.33121 10.38405,-7.53268 17.63959,-10.19519 29.06271,-10.66496 7.82927,-0.32198 11.0046,-0.0133 16.5,1.60416 7.93461,2.33535 16.94115,7.77051 23.30497,14.06382 4.44299,4.39375 4.56968,4.44498 10,4.04448 3.025,-0.2231 8.65,-1.64085 12.5,-3.15053 z m -7.27976,10.00083 c 0.66458,-1.91516 9.9974,-6.41698 16.74635,-8.07785 12.84737,-3.16166 30.33502,-0.33972 37.5202,6.05453 l 2.98679,2.65801 -2.63933,0.29492 c -1.45163,0.16221 -6.33289,-0.37812 -10.84726,-1.20074 -10.37553,-1.89065 -24.54005,-1.91311 -34.64902,-0.055 -9.4186,1.73127 -9.60769,1.73804 -9.11773,0.32607 z m 53.45814,-0.7143 c -1.7949,-0.78947 -8.9968,-6.73956 -24.90365,-7.16219 -11.72677,-0.30858 -19.84232,4.53336 -21.63722,5.32283 -2.70735,1.19083 8.77695,-1.27718 21.86249,-1.27718 13.08554,0 27.38573,4.30737 24.67838,3.11654 z M 83.457762,797.38776 c 2.60798,-4.71745 1.513009,-4.15959 -6.31598,3.2178 -4.2625,4.01663 -13.15,11.40227 -19.750001,16.41252 -18.553449,14.08448 -32.45931,29.40248 -32.49062,35.79 -0.01055,2.15264 56.072101,-50.92623 58.556601,-55.42032 z m 317.434018,55.39578 c 0,-1.85274 -3.58986,-8.04715 -7.37007,-12.71729 -5.97464,-7.38115 -15.22312,-15.79733 -26.12993,-23.77842 -4.95,-3.62218 -12.9375,-10.25595 -17.75,-14.74172 -8.62118,-8.03587 -9.8265,-8.76481 -7.64465,-4.6232 1.23824,2.35045 56.95222,56.37179 58.13807,56.37179 0.41612,0 0.75658,-0.23002 0.75658,-0.51116 z M 218.52229,751.71181 c -0.78147,-1.4529 -1.95079,-4.53375 -2.59848,-6.84635 -0.72914,-2.6034 -1.53313,-3.86322 -2.11111,-3.30801 -1.19947,1.1522 -3.89948,11.09159 -3.27617,12.06039 0.26031,0.40458 2.48328,0.73561 4.93995,0.73561 h 4.46666 z m -9.60358,-6.24386 c 1.95153,-4.1299 2.59101,-11.74734 1.16692,-13.90037 -0.60626,-0.91657 -1.62357,-0.92248 -4.66075,-0.0271 -2.5521,0.75239 -4.00109,0.81152 -4.2229,0.1723 -0.92461,-2.66451 -4.12826,-7.55982 -5.16455,-7.89164 -1.69738,-0.5435 -4.14565,5.75492 -4.14565,10.66512 0,6.77061 7.41167,14.8417 13.79889,15.0266 0.71439,0.0206 2.16701,-1.79954 3.22804,-4.04493 z m 24.09428,0.9832 c 1.83523,-3.29405 2.81453,-8.49629 2.17637,-11.56135 -0.58578,-2.81349 -1.56884,-2.9836 -6.57591,-1.13793 -0.9812,0.36169 -2.34513,-0.90435 -4.13506,-3.83827 -1.469,-2.4079 -3.12491,-4.37799 -3.67979,-4.37799 -1.57715,0 -3.90682,6.25944 -3.90682,10.49698 0,3.25236 0.62021,4.38727 4.08521,7.47545 6.26519,5.58386 10.04922,6.50915 12.036,2.94311 z M 201.2699,690.66301 c -5.0281,-3.53176 -11.39433,-12.10359 -31.68538,-11.14005 -10.40451,0.48865 -22.03069,8.83235 -22.4342,8.98965 -1.4679,0.57225 16.7849,-4.75438 26.38221,-4.74401 14.49059,0.0157 29.20249,7.92351 27.73737,6.89441 z m 57.89271,236.01711 c 0.3323,-0.3192 1.19479,-0.35332 1.91667,-0.0758 0.79773,0.30664 0.56078,0.53426 -0.60417,0.58035 -1.05416,0.0417 -1.64479,-0.18533 -1.3125,-0.50452 z"
           style="fill:#636363;stroke-width:0.98009932"
           sodipodi:nodetypes="cssssssssscccsccccsssssssssssssssssssssssssssscccssssscccsssssssssssssssssssssssssssssscccsssssccsssccsssssssssssssssssssssssssssssssssssscccscccsssssssssssssssssssssssccssssssssssssccsscccssssssssssccscccssccsssccsssccsssssccsssccccssssssccssssssccsssccssc" />
        <path
           inkscape:connector-curvature="0"
           style="fill:url(#linearGradient2386);fill-opacity:1;fill-rule:evenodd;stroke:none;stroke-width:0.98009932"
           d="m 128.83431,695.41749 2.23008,3.36631 5.41589,0.61205 c 0,0 9.87605,-4.28439 11.78754,-5.20247 1.91149,-0.91809 20.38925,-6.73263 20.38925,-6.73263 l 8.9203,-0.91808 23.25649,7.03864 17.20343,14.07731 12.74328,-2.75426 19.75208,-3.06028 21.345,0.91808 20.07067,5.50851 c 0,0 7.96455,0 8.28313,-1.22411 0.31859,-1.22412 2.54866,-15.30141 1.59291,-18.66772 -0.95574,-3.36631 -5.73447,-16.83155 -8.28313,-19.5858 -2.54866,-2.75426 -14.65477,-14.07731 -15.9291,-15.30142 -1.27433,-1.22411 -14.65478,-10.40495 -16.88485,-11.62907 -2.23007,-1.22411 -17.52201,-6.73262 -17.52201,-6.73262 l -31.53962,-3.97836 -14.01761,0.61205 -19.11493,4.2844 -27.71664,16.52552 -13.38044,15.60743 -6.37164,11.9351 z"
           id="path14027" />
        <path
           inkscape:connector-curvature="0"
           style="fill:url(#linearGradient2383);fill-opacity:1;fill-rule:evenodd;stroke:none;stroke-width:0.98009932"
           d="m 140.80782,694.99422 -0.11264,-2.48854 2.59063,-4.0033 5.85706,-4.65248 c 0,0 5.96969,-3.13773 6.42024,-3.24592 0.45054,-0.1082 6.64551,-3.02952 9.01086,-3.02952 2.36535,0 10.81303,-0.3246 10.81303,-0.3246 0,0 6.64551,0.1082 7.20869,0.21639 0.56318,0.10821 4.84334,1.51477 4.84334,1.51477 l 8.89822,3.57051 10.24986,8.22299 c 0,0 1.46426,2.48854 1.23899,3.02953 -0.22527,0.54099 -1.12636,1.51476 -1.12636,1.51476 0,0 -3.60434,-0.64918 -4.7307,-1.08198 -1.12636,-0.43278 -4.61807,-1.51476 -5.06861,-1.73115 -0.45054,-0.21639 -5.18124,-2.59674 -6.08233,-2.70493 -0.90109,-0.1082 -6.64551,-1.83936 -6.64551,-1.83936 l -4.7307,-0.97377 -4.28016,-0.75738 -5.51915,0.21639 -17.45855,4.32789 -6.42024,2.81313 -3.60434,1.19017 z"
           id="path15977" />
        <path
           inkscape:connector-curvature="0"
           style="fill:url(#linearGradient2380);fill-opacity:1;fill-rule:evenodd;stroke:none;stroke-width:0.98009932"
           d="m 222.69402,705.48936 c 0,0 7.65923,-0.75739 9.91195,-1.51477 2.25271,-0.75738 13.40365,-2.05575 14.1921,-2.16394 0.78845,-0.1082 12.2773,-0.64919 15.54374,0 3.26644,0.64918 15.4311,2.48854 16.33218,2.48854 0.90109,0 5.74443,-0.2164 5.74443,-0.2164 0,0 1.23899,-2.16395 0.67581,-2.81313 -0.56318,-0.64918 -1.80217,-1.29836 -2.59062,-1.73115 -0.78845,-0.4328 -6.08233,-3.24593 -6.98342,-3.89511 -0.90108,-0.64918 -10.47512,-3.7869 -11.0383,-3.7869 -0.56318,0 -10.36249,-0.54099 -12.95311,-0.54099 -2.59063,0 -9.34877,0.75738 -10.36249,1.19017 -1.01373,0.4328 -7.09606,2.59674 -8.10978,3.02952 -1.01372,0.4328 -4.05489,1.62297 -5.18124,2.70494 -1.12636,1.08198 -2.47799,2.70493 -2.70326,3.13773 -0.22527,0.43278 -2.14008,4.11149 -2.47799,4.11149 z"
           id="path16956" />
        <path
           inkscape:connector-curvature="0"
           style="fill:#636363;fill-rule:evenodd;stroke:none;stroke-width:0.98009932"
           d="m 213.54504,739.95109 -3.10866,7.46541 -3.10866,7.7972 c 0,0 3.10866,-0.49769 6.56272,-0.3318 3.45407,0.1659 8.80787,0.99539 8.80787,0.99539 l -1.72703,-2.32257 -1.38163,-2.32257 c 0,0 -1.55433,-1.99077 -2.24514,-3.98155 -0.69081,-1.99077 -1.55433,-4.81104 -1.55433,-4.81104 l -1.20892,-2.15667 z"
           id="path9083" />
        <path
           inkscape:connector-curvature="0"
           id="path2223"
           d="m 327.89178,908.04859 c 0.5887,-1.05665 1.29537,-1.92119 1.57037,-1.92119 0.275,0 0.0183,0.86454 -0.57037,1.92119 -0.5887,1.05665 -1.29537,1.92119 -1.57037,1.92119 -0.275,0 -0.0183,-0.86454 0.57037,-1.92119 z m 3.08615,-4.91025 c -0.0474,-0.32317 1.26385,-3.44762 2.91385,-6.94323 4.80633,-10.18243 4.18018,-10.57669 -4.82112,-3.03574 -3.46851,2.9058 -6.6331,5.28327 -7.03242,5.28327 -0.39931,0 -0.71933,-8.10501 -0.71115,-18.01115 0.0171,-20.69046 -1.88879,-32.39257 -8.05361,-49.44926 -8.97427,-24.82983 -25.60507,-46.75486 -44.6317,-58.83972 -3.1625,-2.00868 -5.75,-3.78499 -5.75,-3.94737 0,-0.16237 2.8526,-1.603 6.33912,-3.2014 7.36994,-3.37874 14.75396,-10.42952 17.96665,-17.15578 3.3406,-6.99408 3.08659,-18.15535 -0.57624,-25.32007 -5.02143,-9.82221 -15.4703,-16.95981 -28.10033,-19.19529 -16.29752,-2.8846 -34.33109,5.41762 -41.24228,18.98696 -1.45971,2.86597 -2.92029,4.95508 -3.24573,4.64248 -0.32543,-0.31262 -1.13313,-3.11813 -1.79489,-6.23447 -2.91256,-13.7159 -12.27534,-25.8432 -24.3463,-31.53498 -3.97991,-1.87663 -8.82859,-3.16334 -6.99171,-2.80617 5.3675,1.04372 13.39951,2.87449 18.32085,5.24393 2.65603,1.27878 5.32995,2.1647 5.94204,1.96871 2.23504,-0.71566 -7.57491,-9.38226 -14.12757,-12.48102 -6.19989,-2.93192 -7.2417,-3.12001 -17.12258,-3.09138 -12.92765,0.0375 -19.53442,2.21907 -27.18528,8.97683 -6.9564,6.14438 -6.12776,7.65363 2.13988,3.8975 7.80004,-3.54369 16.7451,-5.68572 23.52437,-5.63327 l 8.82962,1.12067 -11.23198,0.78011 c -9.04443,2.27514 -16.1018,6.48442 -21.14261,12.61022 -16.15914,19.63729 -15.31892,50.61525 1.85109,68.24805 l 4.63785,4.76285 -5.47198,4.44519 c -22.31257,18.12572 -37.14884,43.81053 -43.66266,75.58959 -1.31724,6.42641 -1.77684,13.39146 -1.7907,27.13686 -0.0102,10.17034 -0.33052,18.49149 -0.71172,18.49145 -0.3812,-4e-5 -3.66903,-2.42525 -7.306288,-5.38937 -3.63726,-2.9641 -6.88303,-5.13009 -7.21282,-4.8133 -0.3298,0.3168 0.14069,2.38641 1.04553,4.59914 2.89345,7.07574 1.08069,4.95576 -2.21878,-2.59482 -4.59621,-10.51805 -8.0003,-25.25001 -8.94532,-38.71284 -0.45316,-6.45573 -1.31121,-12.20577 -1.90677,-12.77786 -1.31747,-1.26556 -8.87348,0.94077 -17.76246,5.18659 -8.13481,3.8856 -24.5236,13.1471 -27.06445,15.29447 -2.22638,1.88159 -6.93041,2.34641 -7.93555,0.78414 -0.33992,-0.52833 -0.01529,-0.9606 0.7214,-0.9606 0.73668,0 4.19714,-3.26401 7.68991,-7.25335 3.49276,-3.98935 10.0036,-10.3653 14.46853,-14.16877 15.08438,-12.84974 33.77896,-30.90863 35.70211,-34.4881 3.30839,-6.15773 6.12028,-14.24259 5.49657,-15.80391 -0.33071,-0.82785 0.76866,-3.79934 2.45012,-6.62242 6.91398,-11.60818 10.680328,-26.83427 11.983278,-48.44437 1.03182,-17.11322 3.74432,-28.8953 9.3687,-40.69413 14.99252,-31.45133 46.97533,-54.69326 82.86254,-60.21627 12.25659,-1.88628 34.97731,-0.7282 46.75684,2.3832 30.05225,7.93787 55.85941,28.05326 69.48806,54.16248 7.57439,14.5107 10.22318,25.06061 11.49609,45.78804 1.2388,20.17192 5.21476,36.59005 11.1114,45.88283 1.59745,2.51749 2.8967,5.7595 2.88723,7.20446 -0.009,1.44496 1.22803,5.86921 2.75,9.83166 2.48937,6.48107 3.82152,8.25388 13.26722,17.65587 5.775,5.74826 15.45,14.64888 21.5,19.77915 6.05,5.13027 14.14521,12.85483 17.98936,17.16569 3.84415,4.31087 7.58321,7.83794 8.30902,7.83794 0.72581,0 1.04154,0.43227 0.70162,0.9606 -0.90226,1.40236 -7.20011,1.17566 -7.78166,-0.28011 -0.45544,-1.14011 -10.25173,-6.87536 -25.21834,-14.76413 -3.3,-1.73941 -8.88626,-4.09592 -12.41391,-5.23671 -8.27345,-2.6755 -8.57846,-2.29191 -9.42816,11.85701 -0.65152,10.84897 -3.00512,22.99777 -6.18512,31.9264 -1.8047,5.06714 -9.24127,20.6087 -9.38666,19.61702 z M 295.50721,703.82245 c 0.35944,-1.37568 0.42382,-6.02257 0.14306,-10.32639 -2.18263,-33.45857 -35.07711,-60.13107 -76.25849,-61.83422 -27.94863,-1.15588 -51.29062,7.11833 -68.35598,24.23066 -10.98025,11.01046 -18.14402,25.38265 -18.14402,36.40111 0,4.33582 1.04529,4.36698 4.40842,0.13144 6.05779,-7.62921 20.29068,-14.9853 31.62662,-16.34583 16.13059,-1.93596 35.44817,7.34727 45.11755,21.68164 1.75133,2.59626 3.49886,4.72048 3.88341,4.72048 0.38454,0 3.69905,-1.93238 7.36558,-4.29417 3.66653,-2.36179 9.62352,-5.17153 13.23776,-6.24386 7.77454,-2.3067 20.30095,-2.58161 27.99227,-0.61436 6.81509,1.74314 16.52695,6.79541 21.68948,11.28322 4.96683,4.3177 6.41946,4.55872 7.29434,1.21028 z m -60.27746,-2.78217 c 10.10897,-1.85817 24.27349,-1.83571 34.64902,0.0549 4.51437,0.82262 9.39563,1.36295 10.84726,1.20074 l 2.63933,-0.29492 -2.98679,-2.65801 c -7.18518,-6.39425 -24.67283,-9.21619 -37.5202,-6.05453 -6.74895,1.66086 -16.08177,6.16269 -16.74635,8.07785 -0.48996,1.41197 -0.30087,1.4052 9.11773,-0.32607 z M 21.244561,854.14998 c 0.49191,-0.18055 0.06248,-0.0416 0.05764,-0.0224 -0.08581,0.34152 0.13362,-0.66236 -0.10557,0.53253 -0.23919,1.1949 -0.04157,-0.13635 0.04793,-0.51018 z m 380.749259,1.90521 c -0.0204,-1.58499 1.00928,-1.91887 1.28321,-1.26852 0.27392,0.65035 0.51483,0.94194 0.26129,1.87657 -0.25354,0.93463 -1.52412,0.97693 -1.5445,-0.60805 z M 208.86077,754.00406 c -0.62331,-0.9688 3.34966,-11.91161 4.95193,-12.44661 1.66277,-0.55521 1.38197,0.70461 2.11111,3.30801 0.64769,2.3126 1.81701,5.39345 2.59848,6.84635 l 2.86724,3.68368 -5.91305,-1.04204 c -2.45667,0 -6.3554,0.0552 -6.61571,-0.34939 z m -7.65968,-5.86175 c -4.87664,-2.03729 -9.30931,-8.53967 -9.30931,-13.65603 0,-4.9102 2.44827,-11.20862 4.14565,-10.66512 1.03629,0.33182 4.23994,5.22713 5.16455,7.89164 0.22181,0.63922 1.6708,0.58009 4.2229,-0.1723 4.72369,-1.39261 5.43914,-0.66495 5.42963,5.52225 -0.007,4.85664 -3.18077,12.50753 -5.16384,12.45013 -0.71439,-0.0207 -2.7347,-0.63744 -4.48958,-1.37057 z m 25.5259,-0.34039 c -0.91564,-0.35911 -3.50314,-2.29136 -5.75,-4.29388 -3.465,-3.08818 -4.08521,-4.22309 -4.08521,-7.47545 0,-4.23754 2.32967,-10.49698 3.90682,-10.49698 0.55488,0 2.21079,1.97009 3.67979,4.37799 1.78993,2.93392 3.15386,4.19996 4.13506,3.83827 5.00707,-1.84567 5.99013,-1.67556 6.57591,1.13793 0.63816,3.06506 -0.34114,8.2673 -2.17637,11.56135 -1.19462,2.14419 -3.1769,2.57015 -6.286,1.35077 z"
           style="fill:#070707;stroke-width:0.98009932"
           sodipodi:nodetypes="csssccsssssssssssssssssssssscccscccsssssssssssssssssssssssssssssssssssssccssssssssssssccscccssccssccssccsscccccssssssccsssssssc" />
        <ellipse
           ry="16.51429"
           rx="10.763522"
           cy="736.25006"
           cx="201.27699"
           style="fill:url(#linearGradient9493);fill-opacity:1;stroke:#000000;stroke-width:1.03955233;stroke-opacity:1"
           id="path8144" />
        <path
           inkscape:connector-curvature="0"
           style="fill:#000000;fill-opacity:1;stroke:#000000;stroke-width:0.91703773;stroke-opacity:1"
           d="m 196.69982,722.33594 c -1.79442,2.74201 -2.9375,6.74737 -2.9375,11.19693 0,8.26099 3.91482,14.94924 8.71875,14.94925 4.80394,0 8.6875,-6.68825 8.6875,-14.94925 0,-1.49473 -0.1062,-2.96034 -0.34375,-4.32268 l -0.59375,0.30019 -7.75,2.85176 c 0,0 -0.91132,-3.7231 -2.40625,-5.73355 -0.59362,-0.79831 -1.96544,-2.52809 -3.375,-4.29265 z"
           id="path10092" />
        <g
           id="g10107"
           transform="matrix(0.8941064,0,0,0.83094605,-98.660313,452.19728)">
          <ellipse
             ry="17.191736"
             rx="9.5675755"
             cy="343.01617"
             cx="363.86685"
             style="fill:url(#linearGradient9495);fill-opacity:1;stroke:#000000;stroke-opacity:1"
             id="path10103"
             transform="matrix(1.125,0,0,1,-46.679302,0)" />
          <path
             inkscape:connector-curvature="0"
             style="fill:#000000;fill-opacity:1;stroke:#000000;stroke-width:0.93565798;stroke-opacity:1"
             d="m 358.09375,328.53125 c -1.79442,2.8545 -2.9375,7.02416 -2.9375,11.65625 0,8.59987 3.91482,15.56249 8.71875,15.5625 4.80394,0 8.6875,-6.96262 8.6875,-15.5625 0,-1.55605 -0.1062,-3.08178 -0.34375,-4.5 L 371.625,336 l -7.75,2.96875 c 0,0 -0.91132,-3.87583 -2.40625,-5.96875 -0.59362,-0.83106 -1.96544,-2.6318 -3.375,-4.46875 z"
             id="path10105" />
        </g>
        <path
           inkscape:connector-curvature="0"
           style="fill:#000000;fill-opacity:1;fill-rule:evenodd;stroke:none;stroke-width:0.98009932"
           d="m 176.40072,686.55483 6.53288,1.51477 6.19496,1.94754 2.25272,0.43279 -4.05489,-2.16394 -5.29388,-1.51476 -1.80217,-0.54099 h -3.04117 z"
           id="path15006" />
        <ellipse
           ry="26.518377"
           rx="39.881886"
           cy="956.23328"
           cx="128.24609"
           style="fill:url(#linearGradient9497);fill-opacity:1;stroke:none;stroke-width:1.11528623"
           id="path22858" />
        <ellipse
           ry="26.518377"
           rx="39.881886"
           cy="956.23328"
           cx="304.90854"
           id="path3201"
           style="fill:url(#linearGradient9499);fill-opacity:1;stroke:none;stroke-width:1.11528623" />
        <path
           inkscape:connector-curvature="0"
           style="fill:#cda809;fill-rule:evenodd;stroke:none;stroke-width:0.98009932"
           d="m 239.64719,783.3622 6.89977,-8.15288 0.54953,0.17596 -7.57142,8.91538 z"
           id="path8112" />
      </g>
    </g>
  </g>
</svg>
